<svg width="106" height="60" viewBox="0 0 106 60" fill="none" xmlns="http://www.w3.org/2000/svg">
<g filter="url(#filter0_d)">
<path fill-rule="evenodd" clip-rule="evenodd" d="M40.5703 0.592529C40.018 0.592529 39.5703 1.04024 39.5703 1.59253V5.86748C39.5703 6.41977 40.018 6.86748 40.5703 6.86748H76.8973C87.0242 6.86748 94.9777 14.6641 94.9777 24.757C94.9777 25.0425 95.2092 25.274 95.4948 25.274H100.757C101.043 25.274 101.274 25.0425 101.274 24.757C101.274 11.2677 90.432 0.592529 76.8973 0.592529H40.5703Z" fill="#6B7B84" stroke="#80949F" stroke-width="0.5"/>
<path fill-rule="evenodd" clip-rule="evenodd" d="M11.1068 25.7122C11.1068 25.4702 10.9106 25.2739 10.6685 25.2739H5.16436C4.9223 25.2739 4.72607 25.4702 4.72607 25.7122C4.72607 39.3616 14.9493 50.6311 28.1687 51.3686L70.5104 51.4064C71.063 51.4069 71.5113 50.959 71.5113 50.4064V45.8267C71.5113 45.2745 71.0635 44.8267 70.5113 44.8267H29.6265C19.3903 44.7984 11.1068 36.283 11.1068 25.7122Z" fill="#6B7B84" stroke="#80949F" stroke-width="0.5"/>
<path fill-rule="evenodd" clip-rule="evenodd" d="M32.1415 39.7924C34.8803 39.7924 37.1616 39.2603 39.4149 38.1655L39.5704 38.0199V30.1855L38.7273 31.2649C37.1049 33.0378 34.9259 34.0137 32.4608 34.0137C27.8692 34.0137 23.2575 31.0459 23.2575 25.3738C23.2575 21.0874 26.4381 16.532 32.2993 16.532C33.4688 16.532 36.313 16.8085 38.7232 19.368L39.5704 20.4117V12.6127L39.4218 12.4653C37.1258 11.3147 34.7843 10.7554 32.1137 10.7554C27.5467 10.7554 23.9821 11.9577 21.1438 14.4289C19.3435 15.9777 16.3408 19.4485 16.3408 25.2923C16.3408 29.6131 17.8793 32.9875 21.1669 35.9144C24.2252 38.5962 27.6163 39.7924 32.1415 39.7924Z" fill="#6B7B84"/>
<path d="M32.1415 39.7924C34.8803 39.7924 37.1616 39.2603 39.4149 38.1655L39.5704 38.0199V30.1855L38.7273 31.2649C37.1049 33.0378 34.9259 34.0137 32.4608 34.0137C27.8692 34.0137 23.2575 31.0459 23.2575 25.3738C23.2575 21.0874 26.4381 16.532 32.2993 16.532C33.4688 16.532 36.313 16.8085 38.7232 19.368L39.5704 20.4117V12.6127L39.4218 12.4653C37.1258 11.3147 34.7843 10.7554 32.1137 10.7554C27.5467 10.7554 23.9821 11.9577 21.1438 14.4289C19.3435 15.9777 16.3408 19.4485 16.3408 25.2923C16.3408 29.6131 17.8793 32.9875 21.1669 35.9144C24.2252 38.5962 27.6163 39.7924 32.1415 39.7924" stroke="#80949F" stroke-width="0.5"/>
<path fill-rule="evenodd" clip-rule="evenodd" d="M51.9111 17.2888H53.2755C54.5269 17.2888 55.9533 17.3571 57.0328 18.093C57.56 18.4695 58.4445 19.3412 58.4445 20.9246C58.4445 22.0946 57.9274 23.1437 57.0734 23.7984C55.9783 24.5932 54.6768 24.5476 53.6309 24.5476H51.9111V17.2888ZM54.977 29.8179C58.2084 29.8179 60.7377 28.8858 62.4943 27.1298C64.655 24.9735 64.9779 22.0073 64.9779 20.4435C64.9779 18.7703 64.5813 15.5066 61.9212 13.1435C59.7407 11.2328 57.4142 10.7554 54.1324 10.7554H45.3779V39.7924H52.0365V29.8179H54.977Z" fill="#6B7B84"/>
<path d="M51.9111 17.2888V17.0388H51.6611V17.2888H51.9111ZM57.0328 18.093L57.1782 17.8895L57.1736 17.8864L57.0328 18.093ZM57.0734 23.7984L57.2203 24.0007L57.2254 23.9968L57.0734 23.7984ZM51.9111 24.5476H51.6611V24.7976H51.9111V24.5476ZM62.4943 27.1298L62.3177 26.9529L62.3175 26.953L62.4943 27.1298ZM61.9212 13.1435L62.0872 12.9566L62.086 12.9555L61.9212 13.1435ZM45.3779 10.7554V10.5054H45.1279V10.7554H45.3779ZM45.3779 39.7924H45.1279V40.0424H45.3779V39.7924ZM52.0365 39.7924V40.0424H52.2865V39.7924H52.0365ZM52.0365 29.8179V29.5679H51.7865V29.8179H52.0365ZM51.9111 17.5388H53.2755V17.0388H51.9111V17.5388ZM53.2755 17.5388C54.5326 17.5388 55.8839 17.6123 56.892 18.2995L57.1736 17.8864C56.0227 17.1019 54.5212 17.0388 53.2755 17.0388V17.5388ZM56.8875 18.2964C57.3751 18.6447 58.1945 19.4495 58.1945 20.9246H58.6945C58.6945 19.233 57.7448 18.2943 57.1782 17.8895L56.8875 18.2964ZM58.1945 20.9246C58.1945 22.0205 57.7107 22.9948 56.9213 23.5999L57.2254 23.9968C58.1441 23.2926 58.6945 22.1687 58.6945 20.9246H58.1945ZM56.9265 23.596C55.9091 24.3345 54.6971 24.2976 53.6309 24.2976V24.7976C54.6564 24.7976 56.0475 24.8519 57.2202 24.0007L56.9265 23.596ZM53.6309 24.2976H51.9111V24.7976H53.6309V24.2976ZM52.1611 24.5476V17.2888H51.6611V24.5476H52.1611ZM54.977 30.0679C58.2568 30.0679 60.8563 29.1207 62.671 27.3066L62.3175 26.953C60.6191 28.6509 58.1599 29.5679 54.977 29.5679V30.0679ZM62.6709 27.3068C64.9029 25.0793 65.2279 22.0287 65.2279 20.4435H64.7279C64.7279 21.9859 64.407 24.8678 62.3177 26.9529L62.6709 27.3068ZM65.2279 20.4435C65.2279 18.7422 64.8263 15.3898 62.0872 12.9566L61.7552 13.3304C64.3363 15.6233 64.7279 18.7983 64.7279 20.4435H65.2279ZM62.086 12.9555C59.84 10.9874 57.4417 10.5054 54.1324 10.5054V11.0054C57.3867 11.0054 59.6415 11.4782 61.7564 13.3315L62.086 12.9555ZM54.1324 10.5054H45.3779V11.0054H54.1324V10.5054ZM45.1279 10.7554V39.7924H45.6279V10.7554H45.1279ZM45.3779 40.0424H52.0365V39.5424H45.3779V40.0424ZM52.2865 39.7924V29.8179H51.7865V39.7924H52.2865ZM52.0365 30.0679H54.977V29.5679H52.0365V30.0679Z" fill="#80949F"/>
<path fill-rule="evenodd" clip-rule="evenodd" d="M84.953 24.4687C83.5053 23.1861 81.4846 22.4425 79.1911 21.6713C77.5569 21.1027 76.6565 20.7894 76.0562 20.2421C75.5824 19.8399 75.3712 19.4033 75.3712 18.8262C75.3712 17.5622 76.2301 16.2113 78.6414 16.2113C80.2801 16.2113 81.6521 16.912 82.7197 18.293L83.1435 18.8414L86.6597 14.3656L86.3392 14.0445C84.1886 11.8924 81.3548 10.7554 78.1439 10.7554C71.6657 10.7554 68.7658 14.9699 68.7658 19.1468C68.7658 21.3882 69.5651 23.196 71.1367 24.5175C72.5437 25.7234 74.2595 26.3991 75.9054 26.9507L76.0914 27.0123C77.553 27.4954 79.0646 27.9954 79.9674 28.8034C80.5955 29.3805 80.8754 30.0076 80.8754 30.8367C80.8754 32.7368 79.379 34.0137 77.152 34.0137C75.3916 34.0137 73.0735 33.1508 71.8471 30.7296L71.5263 30.0953L67.1558 34.1411L67.4135 34.5056C68.8079 36.4801 71.9545 39.7924 77.3594 39.7924C83.3191 39.7924 87.4817 35.9608 87.4817 30.4751C87.4817 27.3374 86.1051 25.4752 84.953 24.4687Z" fill="#6B7B84"/>
<path d="M84.953 24.4687C83.5053 23.1861 81.4846 22.4425 79.1911 21.6713C77.5569 21.1027 76.6565 20.7894 76.0562 20.2421C75.5824 19.8399 75.3712 19.4033 75.3712 18.8262C75.3712 17.5622 76.2301 16.2113 78.6414 16.2113C80.2801 16.2113 81.6521 16.912 82.7197 18.293L83.1435 18.8414L86.6597 14.3656L86.3392 14.0445C84.1886 11.8924 81.3548 10.7554 78.1439 10.7554C71.6657 10.7554 68.7658 14.9699 68.7658 19.1468C68.7658 21.3882 69.5651 23.196 71.1367 24.5175C72.5437 25.7234 74.2595 26.3991 75.9054 26.9507L76.0914 27.0123C77.553 27.4954 79.0646 27.9954 79.9674 28.8034C80.5955 29.3805 80.8754 30.0076 80.8754 30.8367C80.8754 32.7368 79.379 34.0137 77.152 34.0137C75.3916 34.0137 73.0735 33.1508 71.8471 30.7296L71.5263 30.0953L67.1558 34.1411L67.4135 34.5056C68.8079 36.4801 71.9545 39.7924 77.3594 39.7924C83.3191 39.7924 87.4817 35.9608 87.4817 30.4751C87.4817 27.3374 86.1051 25.4752 84.953 24.4687" stroke="#80949F" stroke-width="0.5"/>
</g>
<defs>
<filter id="filter0_d" x="0.476074" y="0.342529" width="105.048" height="59.3138" filterUnits="userSpaceOnUse" color-interpolation-filters="sRGB">
<feFlood flood-opacity="0" result="BackgroundImageFix"/>
<feColorMatrix in="SourceAlpha" type="matrix" values="0 0 0 0 0 0 0 0 0 0 0 0 0 0 0 0 0 0 127 0"/>
<feOffset dy="4"/>
<feGaussianBlur stdDeviation="2"/>
<feColorMatrix type="matrix" values="0 0 0 0 0 0 0 0 0 0 0 0 0 0 0 0 0 0 0.25 0"/>
<feBlend mode="normal" in2="BackgroundImageFix" result="effect1_dropShadow"/>
<feBlend mode="normal" in="SourceGraphic" in2="effect1_dropShadow" result="shape"/>
</filter>
</defs>
</svg>
