<svg width="28" height="28" viewBox="0 0 28 28" fill="none" xmlns="http://www.w3.org/2000/svg">
<g filter="url(#filter0_d)">
<path d="M12.2581 13.4583L12.6668 13.0494L10.95 11.3322L10.5412 11.7411L10.3368 11.5367C10.0098 11.1687 9.68278 10.9643 9.35575 11.0052C9.11049 11.0052 8.9061 11.1687 8.74259 11.414C8.49732 11.8229 8.61996 12.2726 8.66083 12.5588C8.66083 12.6406 8.70171 12.6815 8.70171 12.7632C8.70171 12.8859 8.70171 13.0494 8.41557 13.0903C8.00679 13.213 7.47538 13.3356 6.94397 13.6218C6.20817 14.0307 5.71764 14.3987 5.4315 14.7666C3.91902 16.7291 4.00078 18.4055 4.00078 18.4872C4.00078 18.6099 4.04166 18.6917 4.12341 18.7325L5.22711 19.8773C5.30886 19.9591 5.39062 20 5.47237 20C5.47237 20 5.51325 20 5.59501 20C6.00378 20 7.47538 19.9182 9.19224 18.569C9.56014 18.2828 9.92804 17.7922 10.3368 17.0562C10.623 16.5656 10.7865 16.0341 10.8682 15.5844C10.95 15.2982 11.0726 15.2982 11.1953 15.2982C11.2361 15.2982 11.3179 15.339 11.3996 15.339C11.5631 15.3799 11.7267 15.4208 11.931 15.4208C12.1354 15.4208 12.3398 15.3799 12.5442 15.2573C12.7895 15.0937 12.953 14.8893 12.9939 14.644C13.0347 14.3169 12.8712 13.9898 12.5033 13.7036L12.2581 13.4583Z" fill="white"/>
<path d="M20.884 4.87841L22.0188 4.32603C22.0609 4.28354 22.1449 4.24105 22.1869 4.19856L23.9101 1.86157C24.0362 1.69161 24.0362 1.43667 23.8681 1.3092L22.6913 0.119458C22.5652 -0.00801422 22.313 -0.0505049 22.1449 0.076967L19.8333 1.81908C19.7913 1.86157 19.7493 1.90406 19.7072 1.98905L19.1609 3.13629L15 7.21539L16.7652 9L20.884 4.87841Z" fill="white"/>
<path d="M21.8527 13.0448C20.8636 12.0036 19.4393 11.6288 18.0941 12.0036L11.6453 5.17331C11.7244 4.79848 11.764 4.46529 11.764 4.09046C11.764 3.04926 11.3683 2.00806 10.6166 1.21675C9.58796 0.0922529 8.04498 -0.282579 6.6207 0.217197C6.54157 0.258845 6.42288 0.383789 6.38331 0.550381C6.38331 0.675325 6.42288 0.800269 6.50201 0.925213L8.44062 2.96597C8.87582 3.42409 8.87582 4.21541 8.44062 4.67353C8.00542 5.13166 7.25371 5.13166 6.81851 4.67353L4.8799 2.63278C4.76121 2.54949 4.64252 2.50784 4.48426 2.54949C4.36557 2.54949 4.24688 2.67443 4.20732 2.79937C3.73256 4.25705 4.08863 5.88133 5.11728 6.96417C5.82943 7.75549 6.85808 8.17197 7.88673 8.17197C8.20324 8.17197 8.55931 8.13032 8.87582 8.04702L15.3642 14.8773C15.0082 16.2933 15.4038 17.7927 16.3533 18.8339C17.105 19.6252 18.0546 20 19.0832 20C19.5184 20 19.914 19.9167 20.3492 19.7918C20.4679 19.7501 20.5866 19.6252 20.6262 19.5002C20.6658 19.3753 20.6262 19.2087 20.5075 19.1254L18.5689 17.0846C18.3711 16.8764 18.2128 16.5432 18.2128 16.21C18.2128 15.8768 18.3315 15.5853 18.5689 15.3354C18.8063 15.0855 19.0832 14.9606 19.3997 14.9606C19.7162 14.9606 19.9932 15.0855 20.2306 15.3354L22.1692 17.3762C22.2879 17.4595 22.4065 17.5011 22.5252 17.5011C22.6439 17.4595 22.7626 17.3762 22.8022 17.2512C22.9209 16.8348 23 16.3766 23 15.9185C23 14.8356 22.6044 13.7944 21.8527 13.0448Z" fill="white"/>
</g>
<defs>
<filter id="filter0_d" x="0" y="0" width="28" height="28" filterUnits="userSpaceOnUse" color-interpolation-filters="sRGB">
<feFlood flood-opacity="0" result="BackgroundImageFix"/>
<feColorMatrix in="SourceAlpha" type="matrix" values="0 0 0 0 0 0 0 0 0 0 0 0 0 0 0 0 0 0 127 0"/>
<feOffset dy="4"/>
<feGaussianBlur stdDeviation="2"/>
<feColorMatrix type="matrix" values="0 0 0 0 0 0 0 0 0 0 0 0 0 0 0 0 0 0 0.25 0"/>
<feBlend mode="normal" in2="BackgroundImageFix" result="effect1_dropShadow"/>
<feBlend mode="normal" in="SourceGraphic" in2="effect1_dropShadow" result="shape"/>
</filter>
</defs>
</svg>
